<svg id="Layer_1" data-name="Layer 1" xmlns="http://www.w3.org/2000/svg" viewBox="0 0 673.23 1031.78"><defs><style>.cls-1{fill:#3680fa;}</style></defs><title>logo</title><path class="cls-1" d="M915.1,619.39c-5.73-.51-11.44.76-17,2.72a1.79,1.79,0,0,0,.19,1.08c6,11.36,6.1,25.43-4.13,39.39-32.71,44.64-76.69,75.71-115,114.84C740.55,816.95,702.68,856.65,662.88,895,576.89,978,498.74,1068.67,409,1147.65h0a1.76,1.76,0,0,0-.06,2.67,362.59,362.59,0,0,0,495.19-16.63C1045.35,993,1049.41,764.93,915.1,619.39Z" transform="translate(-408.33 -208.22)"/><path class="cls-1" d="M622.77,932.71C607,951,589.06,962.24,569,975.7c-21.09,14.13-40.89,29.62-58.69,47.78-17.58,17.94-33.33,37.55-48.69,57.4-4,5.17-8,10.34-11.95,15.55-2.33,3.08,1.94-1.89-1.13,1.13-3.66,3.6-7.19,7.35-10.78,11l-24.32,24.84,6.62-3.86-.45.14,14.59,3.86-.35-.28,4.39,10.61,0-.47-2,7.57c28.57-45.09,59.48-84.62,95.48-124S606.34,951.17,646,915.76c37.75-33.7,75.73-67.46,115.57-98.68,28.09-22,56.25-43.75,81.64-68.91,31.52-31.23,55.59-69.23,78-107.24a15,15,0,0,0-25.9-15.14c-10,16.95-20.32,33.72-31.42,50q-6.17,9-12.7,17.8c-.39.53-3.36,4.42-2.18,2.89s-.15.19-.46.59l-1.61,2q-2.75,3.46-5.59,6.86c-11.73,14-24.87,26.77-38.33,39.1-23.6,21.62-49.74,40.45-74.76,60.35-29.33,23.34-57.36,48.47-85.5,73.22C584,930.33,526.61,984.13,476.68,1044.65q-19.32,23.42-37.15,48-8.82,12.2-17.2,24.71c-5.74,8.57-16,19.57-13.55,30.47,2.24,9.83,14.58,13.93,22.83,9.1a21.93,21.93,0,0,0,4.08-3.41c2.8-2.71,5.46-5.58,8.19-8.37l22.36-22.85c8.55-8.74,15.45-18.87,22.5-27.87,12.77-16.31,26-32.34,40.33-47.28a297.65,297.65,0,0,1,44-38.08c16.75-11.69,34.12-22.42,50.05-35.25A160.13,160.13,0,0,0,644,953.93c5.29-6.13,6-15.19,0-21.21-5.41-5.41-15.89-6.16-21.21,0Z" transform="translate(-408.33 -208.22)"/><path class="cls-1" d="M1070.65,274.85c-128.22-102.67-315.66-85-422.27,41.26s-92.68,314,30,423.22a7.92,7.92,0,0,0,11.3-.83L948,432.65a46.12,46.12,0,0,1-9.58,3.68c-5,1.29-7.11-6.43-2.13-7.71a43,43,0,0,0,20-12.09,4.64,4.64,0,0,1-1.91-3.33c-1.44-11.38,8.27-16.78,15.87-23,6.25-46.28,35.72-88.18,83.63-99.83a52.59,52.59,0,0,1,12-1.46,7.81,7.81,0,0,0,5.87-2.81A7.92,7.92,0,0,0,1070.65,274.85Z" transform="translate(-408.33 -208.22)"/><path class="cls-1" d="M1059.07,276.38c-37.72,20.29-75.14,47.44-99.11,83.55-10.25,15.44-18.76,32.26-27.73,48.47-8.68,15.69-17.24,31.44-25.88,47.15-16.92,30.78-34.15,61.42-53.17,91q-14.16,22-29.73,43-1.72,2.3-3.45,4.58l-2.18,2.86c-1.67,2.18,2.12-2.69-.75,1s-5.7,7.23-8.62,10.81q-8.66,10.63-17.79,20.88A657.77,657.77,0,0,1,689.75,721c-6.52,4.79-9.78,13-5.38,20.52,3.76,6.43,14,10.21,20.52,5.38,34.23-25.16,66.59-52.8,95.71-83.76A687.37,687.37,0,0,0,869,576.88c39.88-59,71.51-123.07,106.78-184.85,2.64-4.62,5.22-9.3,8-13.82q2.18-3.51,4.59-6.88c1.64-2.3,2.39-3.28,3.3-4.37a224.79,224.79,0,0,1,24.11-24.85c17.42-15.4,37.22-28.45,58.36-39.82,7.13-3.84,9.37-13.71,5.38-20.52-4.22-7.21-13.36-9.23-20.52-5.38Z" transform="translate(-408.33 -208.22)"/><path class="cls-1" d="M743.56,691.15c20.47-25.38,41-50.8,63.67-74.26,11.59-12,24.07-23.05,35.73-35a289,289,0,0,0,31-38.16c10.24-14.83,19.35-30.4,28.44-45.94a15,15,0,0,0-25.9-15.14c-15.61,26.69-31.06,53.2-52.15,75.31-11.09,11.63-23.17,22.26-34.46,33.69s-22.15,23.5-32.63,35.78c-11.91,13.94-23.43,28.21-34.94,42.48-5.08,6.3-6.16,15.06,0,21.21,5.26,5.26,16.1,6.34,21.21,0Z" transform="translate(-408.33 -208.22)"/><path class="cls-1" d="M784.25,631.15q22.19-18.5,44.91-36.35L827,592.68a232.81,232.81,0,0,1-35.42,35.85c-1.5,1.22.64,3.33,2.12,2.12a232.81,232.81,0,0,0,35.42-35.85,1.5,1.5,0,0,0-2.12-2.12Q804.32,610.52,782.13,629c-1.48,1.24.65,3.35,2.12,2.12Z" transform="translate(-408.33 -208.22)"/><path class="cls-1" d="M803.37,619.7c.11,4-10,5.85-12.89,6.86l-12.57,4.32c-1.82.62-1,3.52.8,2.89,7.16-2.46,14.49-4.65,21.55-7.4,3.14-1.22,6.22-2.91,6.11-6.67-.05-1.93-3.05-1.93-3,0Z" transform="translate(-408.33 -208.22)"/><path class="cls-1" d="M777.15,633.65c6.29.77,13,1.5,18.93-1.33,3.45-1.65,9-6.08,7.83-10.58-1-3.85-6.18-3.4-9.23-2.51a15.17,15.17,0,0,0-10,9.54l2.89.8a8.58,8.58,0,0,1,3.82-5.84c1.61-1.05.11-3.65-1.51-2.59a11.09,11.09,0,0,0-5.19,7.64,1.5,1.5,0,0,0,2.89.8,12,12,0,0,1,7.88-7.44c.59-.17,4.21-1.1,4.85-.29,1.55,2-1.23,4.76-2.49,5.86-5.61,4.9-13.93,3.79-20.7,3-1.91-.23-1.9,2.77,0,3Z" transform="translate(-408.33 -208.22)"/><path class="cls-1" d="M776.89,653.55a267.1,267.1,0,0,0,22.45-30.74l-2.59-1.51-1.64,3.09a1.51,1.51,0,0,0,2.36,1.82l19.74-17.71-2.12-2.12-27,30,2.36,1.82a59.77,59.77,0,0,1,11.34-17.44c1.32-1.41-.8-3.54-2.12-2.12a62,62,0,0,0-11.81,18c-.61,1.43,1.11,3.2,2.36,1.82l27-30a1.5,1.5,0,0,0-2.12-2.12l-19.74,17.71,2.36,1.82,1.64-3.09a1.5,1.5,0,0,0-2.59-1.51,261.68,261.68,0,0,1-22,30.13c-1.24,1.47.87,3.6,2.12,2.12Z" transform="translate(-408.33 -208.22)"/></svg>